# xmcd
#
# Track frame offsets:
#	150
#	41837
#	90150
#	159372
#	204055
#	218020
#	236062
#
# Disc length: 3299
#
# Revision: 3
# Processed by: cddbd v1.5.1PL0 Copyright (c) Steve Scherf et al.
# Submitted via: Grip 3.0.4
# Normalized: r2:TDELIM( - )
#
DISCID=4c0ce107
DTITLE=Classical - Works for Saxophone and Orchestra - Rundfunk-Sinfonieorchester Berlin, Johannes Ernst
DYEAR=1998
DGENRE=Classical
TTITLE0=Florent Schmitt - Légende
TTITLE1=Vincent d'Indy - Choral varié
TTITLE2=Henri Tomasi - Ballade
TTITLE3=Claude Debussy - Rapsodie
TTITLE4=Darius Milhaud - Scaramouche - Vif
TTITLE5=Darius Milhaud - Scaramouche - Modére
TTITLE6=Darius Milhaud - Scaramouche - Brazileira
EXTD=
EXTT0=
EXTT1=
EXTT2=
EXTT3=
EXTT4=
EXTT5=
EXTT6=
PLAYORDER=
